<svg xmlns="http://www.w3.org/2000/svg" height="165.018" width="189.422"><path d="M71.878 3.908H35.907L5.594 48.522h48.142z" fill="#85c3e9"/><path d="M132.022 48.521L113.88 3.907H75.54L57.397 48.521zM5.974 51.916l83.905 102.365-36.2-102.365z" fill="#d8e9f7"/><path d="M57.276 51.916L94.71 157.763l37.435-105.847z" fill="#4495d7"/><path d="M99.542 154.28l83.906-102.365h-47.7z" fill="#85c3e9"/><path d="M117.544 3.908l18.143 44.614h48.142L153.515 3.908z" fill="#fff"/><g fill="none" stroke="#3e4147" stroke-linecap="round" stroke-linejoin="round" stroke-width="3.394"><path d="M94.715 2.216h59.7l32.621 48.008H2.389l32.62-48.008z"/><path d="M2.389 50.216l92.322 112.633 92.322-112.633"/><path d="M94.715 162.852L54.877 50.216 74.399 2.208M94.715 162.852l39.83-112.636-19.523-48.008"/></g></svg>
